# xmcd
#
# Track frame offsets: 
#        183
#        11273
#        21818
#        34613
#        48410
#        58805
#        70920
#        84768
#        96368
#        110340
#        124590
#        135398
#        149180
#        163020
#        175488
#        187520
#        199780
#        211363
#
# Disc length: 2973 seconds
#
# Revision: 2
# Processed by: cddbd v1.5.2PL0 Copyright (c) Steve Scherf et al.
# Submitted via: ExactAudioCopyFreeDBPlugin 1.0
#
DISCID=f30b9b12
DTITLE=Ray Charles - The Genius
DYEAR=2001
DGENRE=Blues
TTITLE0=A Sentimental Blues
TTITLE1=Hey now
TTITLE2=Don't put all your dreams in one basket
TTITLE3=Misery in my heart
TTITLE4=Sittin' on top of the world
TTITLE5=I've had my fun
TTITLE6=Baby, let me hold your hand
TTITLE7=What have I done ?
TTITLE8=Kissa me baby (All Night Long)
TTITLE9=Blues is my middle name
TTITLE10=I wonder who's kissing her now
TTITLE11=I'm gonna drown Myself
TTITLE12=Someday
TTITLE13=I'm glad for your sake
TTITLE14=C. C. Rider
TTITLE15=Honey - Honey
TTITLE16=Ray Charles Blues
TTITLE17=I give you my love
EXTD=YEAR: 2001  ID3G:   0
EXTT0=
EXTT1=
EXTT2=
EXTT3=
EXTT4=
EXTT5=
EXTT6=
EXTT7=
EXTT8=
EXTT9=
EXTT10=
EXTT11=
EXTT12=
EXTT13=
EXTT14=
EXTT15=
EXTT16=
EXTT17=
PLAYORDER=
